<svg width="31" height="31" viewBox="0 0 31 31" fill="none" xmlns="http://www.w3.org/2000/svg">
<path d="M27.1636 28.4166H18.0703C17.5278 28.4166 17.1016 27.9775 17.1016 27.4479C17.1016 26.9183 17.5407 26.4791 18.0703 26.4791H27.1636C27.7061 26.4791 28.1324 26.9183 28.1324 27.4479C28.1324 27.9775 27.7061 28.4166 27.1636 28.4166Z" fill="#25491B"/>
<path d="M17.6184 21.5579C18.1222 22.0617 18.1222 22.8754 17.6184 23.3921L13.7692 27.2413C12.3355 28.675 10.0363 28.7525 8.51216 27.4738C8.42175 27.3963 8.34425 27.3188 8.26675 27.2413L7.143 26.1175L4.83091 23.8054L3.72008 22.6946C3.62966 22.6042 3.55216 22.5138 3.47466 22.4233C2.20883 20.8992 2.29925 18.6258 3.72008 17.205L7.56925 13.3558C8.073 12.8521 8.88675 12.8521 9.3905 13.3558L17.6184 21.5579Z" fill="#25491B"/>
<path d="M27.2798 13.7433L20.8215 20.2017C20.3178 20.7054 19.504 20.7054 19.0003 20.2017L10.7723 11.9996C10.2686 11.4958 10.2686 10.6821 10.7723 10.1654L17.2307 3.71999C18.7419 2.20874 21.2219 2.20874 22.7332 3.71999L27.2798 8.25373C28.7911 9.76498 28.7911 12.2321 27.2798 13.7433Z" fill="#25491B"/>
</svg>
