<svg width="29" height="29" viewBox="0 0 29 29" fill="none" xmlns="http://www.w3.org/2000/svg">
<path d="M14.5 23.5625C19.5051 23.5625 23.5625 19.5051 23.5625 14.5C23.5625 9.49492 19.5051 5.4375 14.5 5.4375C9.49492 5.4375 5.4375 9.49492 5.4375 14.5C5.4375 19.5051 9.49492 23.5625 14.5 23.5625Z" stroke="#25491B" stroke-width="1.5" stroke-linecap="round" stroke-linejoin="round"/>
<path d="M14.5 18.125C16.502 18.125 18.125 16.502 18.125 14.5C18.125 12.498 16.502 10.875 14.5 10.875C12.498 10.875 10.875 12.498 10.875 14.5C10.875 16.502 12.498 18.125 14.5 18.125Z" stroke="#25491B" stroke-width="1.5" stroke-linecap="round" stroke-linejoin="round"/>
<path d="M14.5 4.83335V2.41669" stroke="#25491B" stroke-width="1.5" stroke-linecap="round" stroke-linejoin="round"/>
<path d="M4.83341 14.5H2.41675" stroke="#25491B" stroke-width="1.5" stroke-linecap="round" stroke-linejoin="round"/>
<path d="M14.5 24.1667V26.5834" stroke="#25491B" stroke-width="1.5" stroke-linecap="round" stroke-linejoin="round"/>
<path d="M24.1665 14.5H26.5832" stroke="#25491B" stroke-width="1.5" stroke-linecap="round" stroke-linejoin="round"/>
</svg>
