<svg width="29" height="29" viewBox="0 0 29 29" fill="none" xmlns="http://www.w3.org/2000/svg">
<path d="M2.76709 9.40085V21.1579C2.76709 23.4538 4.39834 24.3963 6.38001 23.2604L9.21959 21.6413C9.83584 21.2908 10.8629 21.2546 11.5033 21.5808L17.8471 24.7588C18.4875 25.0729 19.5146 25.0488 20.1308 24.6983L25.3629 21.7017C26.0275 21.315 26.5833 20.3725 26.5833 19.5992V7.84209C26.5833 5.54626 24.9521 4.60376 22.9704 5.73959L20.1308 7.35876C19.5146 7.70918 18.4875 7.74543 17.8471 7.41918L11.5033 4.25334C10.8629 3.93918 9.83584 3.96334 9.21959 4.31376L3.98751 7.31043C3.31084 7.69709 2.76709 8.6396 2.76709 9.40085Z" stroke="#25491B" stroke-width="1.5" stroke-linecap="round" stroke-linejoin="round"/>
<path d="M10.3433 4.83334V20.5417" stroke="#25491B" stroke-width="1.5" stroke-linecap="round" stroke-linejoin="round"/>
<path d="M19.0073 7.99918V24.1667" stroke="#25491B" stroke-width="1.5" stroke-linecap="round" stroke-linejoin="round"/>
</svg>
