<svg width="29" height="29" viewBox="0 0 29 29" fill="none" xmlns="http://www.w3.org/2000/svg">
<path d="M5.32896 20.2396C5.03896 23.7317 7.67312 26.5833 11.1773 26.5833H16.9652C20.9044 26.5833 23.611 23.4054 22.9585 19.5146C22.2698 15.4304 18.3306 12.0833 14.186 12.0833C9.69104 12.0833 5.70354 15.7567 5.32896 20.2396Z" stroke="#25491B" stroke-width="1.5" stroke-linecap="round" stroke-linejoin="round"/>
<path d="M12.6512 9.06251C14.3196 9.06251 15.672 7.71004 15.672 6.04168C15.672 4.37332 14.3196 3.02084 12.6512 3.02084C10.9828 3.02084 9.63037 4.37332 9.63037 6.04168C9.63037 7.71004 10.9828 9.06251 12.6512 9.06251Z" stroke="#25491B" stroke-width="1.5" stroke-linecap="round" stroke-linejoin="round"/>
<path d="M20.904 10.5125C22.2387 10.5125 23.3206 9.43052 23.3206 8.09584C23.3206 6.76115 22.2387 5.67917 20.904 5.67917C19.5693 5.67917 18.4873 6.76115 18.4873 8.09584C18.4873 9.43052 19.5693 10.5125 20.904 10.5125Z" stroke="#25491B" stroke-width="1.5" stroke-linecap="round" stroke-linejoin="round"/>
<path d="M25.375 15.3458C26.376 15.3458 27.1875 14.5343 27.1875 13.5333C27.1875 12.5323 26.376 11.7208 25.375 11.7208C24.374 11.7208 23.5625 12.5323 23.5625 13.5333C23.5625 14.5343 24.374 15.3458 25.375 15.3458Z" stroke="#25491B" stroke-width="1.5" stroke-linecap="round" stroke-linejoin="round"/>
<path d="M4.79704 12.9292C6.13173 12.9292 7.2137 11.8472 7.2137 10.5125C7.2137 9.1778 6.13173 8.09583 4.79704 8.09583C3.46235 8.09583 2.38037 9.1778 2.38037 10.5125C2.38037 11.8472 3.46235 12.9292 4.79704 12.9292Z" stroke="#25491B" stroke-width="1.5" stroke-linecap="round" stroke-linejoin="round"/>
</svg>
