<svg width="29" height="29" viewBox="0 0 29 29" fill="none" xmlns="http://www.w3.org/2000/svg">
<path d="M12.9894 27.1875H16.0344C17.1944 27.1875 17.9436 26.3658 17.7261 25.3629L17.2307 23.1759H11.7932L11.2978 25.3629C11.0803 26.3054 11.9019 27.1875 12.9894 27.1875Z" stroke="#25491B" stroke-width="1.5" stroke-linecap="round" stroke-linejoin="round"/>
<path d="M17.2308 23.1638L19.3213 21.303C20.4933 20.2638 20.5417 19.5387 19.6113 18.3667L15.9258 13.6905C15.1525 12.7117 13.8838 12.7117 13.1104 13.6905L9.42501 18.3667C8.49459 19.5387 8.49459 20.3001 9.715 21.303L11.8054 23.1638" stroke="#25491B" stroke-width="1.5" stroke-linecap="round" stroke-linejoin="round"/>
<path d="M14.5122 13.4366V16.4938" stroke="#25491B" stroke-width="1.5" stroke-linecap="round" stroke-linejoin="round"/>
<path d="M13.4729 6.27124L12.5304 5.32871C11.9625 4.76079 11.9625 3.84252 12.5304 3.2746L13.4729 2.33207C14.0408 1.76415 14.9592 1.76415 15.5271 2.33207L16.4696 3.2746C17.0375 3.84252 17.0375 4.76079 16.4696 5.32871L15.5271 6.27124C14.9592 6.83916 14.0408 6.83916 13.4729 6.27124Z" stroke="#25491B" stroke-width="1.5" stroke-linecap="round" stroke-linejoin="round"/>
<path d="M23.5022 11.8538H24.8314C25.6289 11.8538 26.2814 12.5063 26.2814 13.3038V14.6329C26.2814 15.4304 25.6289 16.083 24.8314 16.083H23.5022C22.7047 16.083 22.0522 15.4304 22.0522 14.6329V13.3038C22.0522 12.5063 22.7047 11.8538 23.5022 11.8538Z" stroke="#25491B" stroke-width="1.5" stroke-linecap="round" stroke-linejoin="round"/>
<path d="M5.49792 11.8538H4.16875C3.37125 11.8538 2.71875 12.5063 2.71875 13.3038V14.6329C2.71875 15.4304 3.37125 16.083 4.16875 16.083H5.49792C6.29542 16.083 6.94792 15.4304 6.94792 14.6329V13.3038C6.94792 12.5063 6.29542 11.8538 5.49792 11.8538Z" stroke="#25491B" stroke-width="1.5" stroke-linecap="round" stroke-linejoin="round"/>
<path d="M22.4027 12.2041L15.9985 5.79993" stroke="#25491B" stroke-width="1.5" stroke-linecap="round" stroke-linejoin="round"/>
<path d="M6.59766 12.2041L13.0018 5.79993" stroke="#25491B" stroke-width="1.5" stroke-linecap="round" stroke-linejoin="round"/>
</svg>
