<svg width="29" height="29" viewBox="0 0 29 29" fill="none" xmlns="http://www.w3.org/2000/svg">
<path d="M19.5388 12.1558H9.46127C8.03543 12.1558 7.54002 11.2013 8.37377 10.0413L13.4125 2.98459C14.0046 2.13876 14.9954 2.13876 15.5875 2.98459L20.6263 10.0413C21.46 11.2013 20.9646 12.1558 19.5388 12.1558Z" fill="#25491B"/>
<path d="M21.2543 21.75H7.74518C5.83601 21.75 5.18351 20.4812 6.30726 18.9346L11.1285 12.1558H17.871L22.6923 18.9346C23.816 20.4812 23.1635 21.75 21.2543 21.75Z" fill="#25491B"/>
<path d="M15.4063 21.75V26.5833C15.4063 27.0788 14.9954 27.4896 14.5 27.4896C14.0046 27.4896 13.5938 27.0788 13.5938 26.5833V21.75H15.4063Z" fill="#25491B"/>
</svg>
