<svg width="29" height="29" viewBox="0 0 29 29" fill="none" xmlns="http://www.w3.org/2000/svg">
<path d="M17.5813 2.41669H11.4188C9.24378 2.41669 8.76046 3.5042 8.48254 4.84545L7.4917 9.58209H21.5084L20.5175 4.84545C20.2396 3.5042 19.7563 2.41669 17.5813 2.41669Z" stroke="#25491B" stroke-width="1.5" stroke-linecap="round" stroke-linejoin="round"/>
<path d="M23.2484 17.3034C23.3451 18.3305 22.5234 19.2126 21.4722 19.2126H19.8288C18.8863 19.2126 18.7534 18.8138 18.5843 18.3063L18.403 17.7867C18.1613 17.0737 18.0043 16.5904 16.7355 16.5904H12.2526C10.9959 16.5904 10.8026 17.1342 10.5851 17.7867L10.4038 18.3063C10.2347 18.8017 10.1018 19.2126 9.15925 19.2126H7.51592C6.46467 19.2126 5.643 18.3305 5.73967 17.3034L6.23509 11.9626C6.35592 10.6455 6.60966 9.57001 8.9055 9.57001H20.0826C22.3784 9.57001 22.6322 10.6455 22.753 11.9626L23.2484 17.3034Z" stroke="#25491B" stroke-width="1.5" stroke-linecap="round" stroke-linejoin="round"/>
<path d="M7.49194 6.94794H6.60986" stroke="#25491B" stroke-width="1.5" stroke-linecap="round" stroke-linejoin="round"/>
<path d="M22.3904 6.94794H21.5083" stroke="#25491B" stroke-width="1.5" stroke-linecap="round" stroke-linejoin="round"/>
<path d="M9.24365 13.0863H11.8658" stroke="#25491B" stroke-width="1.5" stroke-linecap="round" stroke-linejoin="round"/>
<path d="M17.1343 13.0863H19.7564" stroke="#25491B" stroke-width="1.5" stroke-linecap="round" stroke-linejoin="round"/>
<path d="M14.5 20.5417V21.75" stroke="#25491B" stroke-width="1.5" stroke-linecap="round" stroke-linejoin="round"/>
<path d="M14.5 25.375V26.5833" stroke="#25491B" stroke-width="1.5" stroke-linecap="round" stroke-linejoin="round"/>
<path d="M3.62484 21.75L2.4165 26.5833" stroke="#25491B" stroke-width="1.5" stroke-linecap="round" stroke-linejoin="round"/>
<path d="M25.375 21.75L26.5833 26.5833" stroke="#25491B" stroke-width="1.5" stroke-linecap="round" stroke-linejoin="round"/>
</svg>
