<svg width="29" height="29" viewBox="0 0 29 29" fill="none" xmlns="http://www.w3.org/2000/svg">
<path d="M14.5002 22.3542C18.8379 22.3542 22.3543 18.8377 22.3543 14.5C22.3543 10.1623 18.8379 6.64584 14.5002 6.64584C10.1624 6.64584 6.646 10.1623 6.646 14.5C6.646 18.8377 10.1624 22.3542 14.5002 22.3542Z" stroke="#25491B" stroke-width="1.5" stroke-linecap="round" stroke-linejoin="round"/>
<path d="M23.1273 23.1275L22.9703 22.9704M22.9703 6.02957L23.1273 5.87249L22.9703 6.02957ZM5.87234 23.1275L6.02942 22.9704L5.87234 23.1275ZM14.4998 2.51332V2.41666V2.51332ZM14.4998 26.5833V26.4867V26.5833ZM2.51317 14.5H2.4165H2.51317ZM26.5832 14.5H26.4865H26.5832ZM6.02942 6.02957L5.87234 5.87249L6.02942 6.02957Z" stroke="#25491B" stroke-width="2" stroke-linecap="round" stroke-linejoin="round"/>
</svg>
